<?xml version="1.0" standalone="no"?>
<!DOCTYPE svg PUBLIC "-//W3C//DTD SVG 20010904//EN"
 "http://www.w3.org/TR/2001/REC-SVG-20010904/DTD/svg10.dtd">
<svg version="1.0" xmlns="http://www.w3.org/2000/svg"
 width="736.000000pt" height="754.000000pt" viewBox="0 0 736.000000 754.000000"
 preserveAspectRatio="xMidYMid meet">
<metadata>
Created by potrace 1.16, written by Peter Selinger 2001-2019
</metadata>
<g transform="translate(0.000000,754.000000) scale(0.100000,-0.100000)"
fill="#000000" stroke="none">
<path d="M721 7503 c-17 -21 -42 -51 -56 -66 -14 -16 -57 -72 -96 -126 -95
-134 -244 -263 -297 -257 -15 2 -33 4 -40 5 -7 0 -12 9 -10 19 2 13 -4 17 -27
17 -40 0 -48 -31 -10 -41 20 -5 23 -9 13 -15 -9 -6 -9 -9 -1 -9 6 0 15 5 18
10 3 6 14 10 23 10 15 -1 15 -2 -2 -15 -27 -20 -11 -19 19 1 14 9 25 14 25 10
0 -3 -35 -26 -77 -51 -68 -39 -74 -45 -48 -45 17 0 48 9 69 21 21 11 43 18 49
15 8 -3 7 -5 -2 -5 -11 -1 -11 -4 -1 -16 7 -8 18 -15 25 -15 7 0 23 -11 36
-25 13 -13 29 -25 34 -25 6 0 18 -13 28 -29 37 -64 111 -122 92 -73 -5 13 -4
14 6 5 9 -9 3 -27 -31 -82 -23 -39 -46 -69 -50 -66 -5 3 -12 0 -16 -6 -4 -8
-3 -9 4 -5 24 14 10 -11 -66 -120 -88 -128 -145 -204 -205 -273 -75 -87 -109
-132 -104 -137 6 -7 122 119 208 226 82 104 184 250 243 348 38 63 57 74 48
27 -2 -14 -11 -25 -21 -25 -13 0 -13 -2 -2 -9 18 -11 9 -71 -24 -168 -37 -109
-130 -489 -166 -678 -35 -181 -47 -401 -23 -425 8 -8 13 22 17 107 6 115 27
287 48 388 24 118 53 231 61 240 11 12 10 3 -7 -140 -25 -221 -29 -370 -10
-468 11 -61 14 -112 10 -165 -5 -71 -5 -75 9 -52 13 22 15 23 21 8 14 -35 23
-7 18 52 -5 51 -3 60 9 55 12 -5 16 9 21 74 6 78 43 281 54 291 2 3 1 -13 -3
-34 -5 -32 -3 -42 11 -52 16 -12 17 -18 7 -51 -8 -26 -8 -41 -1 -48 7 -7 8 -5
4 6 -3 9 1 24 10 33 11 11 15 25 11 41 -8 31 1 33 15 3 8 -19 9 -17 5 14 -3
27 -1 36 8 32 9 -3 20 24 36 93 13 54 30 111 38 127 9 20 13 50 10 92 -2 35 0
58 4 51 22 -34 1 -240 -46 -458 -55 -252 -194 -580 -236 -554 -6 3 -7 0 -4 -9
4 -9 -1 -18 -10 -22 -16 -6 -13 -24 4 -24 5 0 36 26 69 58 32 31 81 78 108
103 57 53 114 157 168 304 20 55 42 116 50 135 7 19 16 42 19 50 4 8 4 -1 0
-20 -3 -19 -7 -75 -10 -125 -7 -134 -39 -276 -91 -400 -48 -117 -69 -150 -146
-232 -57 -60 -47 -81 14 -26 72 65 143 184 200 338 11 28 17 38 14 24 -2 -14
-9 -57 -15 -96 -18 -132 -49 -268 -75 -338 -15 -38 -29 -79 -32 -90 l-6 -20
24 20 c29 24 34 31 77 104 23 39 32 47 28 29 -7 -30 2 -36 22 -16 16 16 15 58
0 58 -9 0 -10 3 -2 8 6 4 14 21 17 37 14 75 38 168 47 183 7 12 8 7 3 -17 -4
-22 -3 -32 4 -28 7 4 13 -29 17 -91 9 -134 39 -222 94 -281 24 -25 54 -66 67
-91 23 -45 23 -45 4 -92 -63 -161 -180 -292 -297 -334 l-37 -13 31 -1 c46 0
148 55 191 104 21 24 62 86 91 137 28 52 52 89 52 83 0 -23 -51 -170 -68 -194
-10 -14 -24 -37 -31 -52 -8 -15 -36 -52 -63 -83 -53 -59 -54 -68 -5 -33 102
70 203 195 223 274 14 56 20 28 8 -39 -16 -92 -18 -98 -72 -180 -24 -37 -41
-71 -37 -75 11 -11 83 78 111 138 14 30 28 79 31 108 3 28 9 52 13 52 3 0 17
-43 30 -96 l24 -96 -34 -28 -35 -28 28 -7 c34 -9 34 -15 -6 -44 -56 -42 -116
-150 -117 -213 0 -18 -5 -28 -15 -28 -8 0 -15 -4 -15 -10 0 -5 5 -10 10 -10 6
0 10 -8 10 -17 0 -15 -2 -16 -10 -3 -8 12 -10 12 -10 1 0 -11 -3 -11 -15 -1
-8 7 -15 10 -15 6 0 -9 -100 33 -117 50 -9 8 -15 26 -15 39 0 32 -19 46 -108
80 -41 15 -79 31 -85 36 -11 8 -364 161 -440 191 -27 10 -75 30 -105 45 -30
14 -73 32 -95 41 -22 8 -44 19 -50 24 -15 13 -25 9 -25 -9 0 -12 22 -29 68
-51 37 -17 71 -32 75 -32 4 0 51 -21 104 -46 54 -25 132 -59 173 -76 125 -49
237 -106 244 -123 3 -9 6 -32 6 -50 0 -18 3 -40 6 -49 12 -32 24 -15 24 34 0
41 3 50 18 49 23 -1 70 -20 110 -44 30 -18 32 -23 32 -75 0 -58 18 -98 38 -86
7 4 12 13 12 21 0 28 23 26 96 -10 46 -23 74 -43 75 -53 1 -45 11 -106 22
-140 9 -26 11 -83 7 -197 l-5 -160 -28 -3 c-16 -2 -39 4 -52 12 -13 9 -37 16
-52 16 -14 0 -37 10 -50 22 -27 25 -47 14 -41 -23 3 -21 9 -24 43 -25 22 0 56
-8 76 -16 19 -9 48 -20 63 -24 15 -3 30 -14 33 -23 21 -69 58 -87 48 -23 -5
29 -4 34 5 22 9 -12 10 -8 6 20 -4 25 -3 31 4 20 8 -13 10 -13 10 2 0 9 -4 20
-10 23 -5 3 -10 27 -9 53 0 46 1 45 20 -31 10 -42 26 -91 34 -107 9 -17 12
-30 8 -30 -4 0 2 -7 14 -15 12 -8 27 -32 34 -53 26 -81 161 -234 294 -332 58
-43 71 -69 62 -125 -10 -60 -36 -103 -67 -110 -21 -5 -27 -11 -23 -24 3 -11 0
-22 -6 -25 -6 -4 -11 -11 -11 -17 0 -20 32 -7 72 28 79 68 82 71 74 49 -5 -16
-4 -17 8 -7 8 7 12 19 9 27 -3 8 0 14 5 14 6 0 13 -8 16 -17 3 -10 4 -1 3 20
-2 20 0 37 3 37 14 0 30 -88 30 -163 0 -75 -3 -87 -31 -131 -16 -27 -27 -51
-24 -54 12 -12 61 37 89 88 24 43 30 68 34 143 4 81 6 88 19 71 42 -56 -46
-310 -141 -406 -36 -36 -28 -47 13 -17 28 21 63 65 90 114 5 11 11 14 11 7 1
-37 -154 -282 -178 -282 -13 0 -4 154 13 210 6 22 19 180 19 242 0 60 2 75 12
68 8 -7 13 -6 17 3 3 8 -3 12 -17 12 -34 -2 -58 -16 -52 -32 3 -8 2 -11 -4 -8
-5 3 -5 -8 2 -25 6 -18 7 -35 2 -40 -5 -5 -76 -12 -157 -17 l-148 -8 -3 -432
-4 -433 37 0 c20 0 42 -5 49 -12 9 -9 18 -9 37 0 34 16 118 15 133 0 9 -9 12
-76 12 -240 0 -217 -1 -228 -20 -238 -11 -6 -72 -11 -135 -12 -64 -1 -118 -4
-120 -8 -2 -3 -2 -16 1 -27 5 -17 16 -21 62 -25 35 -3 69 0 89 8 42 18 97 18
112 0 6 -8 14 -36 16 -62 2 -27 10 -107 17 -179 l13 -130 6 75 c8 97 11 868 3
897 -6 22 -9 22 -98 16 -116 -7 -126 0 -126 92 0 80 7 85 129 85 104 0 101 -3
96 103 l-3 67 41 29 c23 15 61 38 84 50 23 11 58 35 78 52 19 17 41 29 49 26
8 -3 16 -30 20 -72 4 -37 16 -86 28 -108 l21 -41 -37 -32 c-33 -29 -124 -63
-172 -65 -18 0 -18 -1 1 -8 11 -5 38 -6 59 -3 28 4 37 2 32 -6 -9 -15 -108
-16 -123 -1 -6 6 -17 9 -24 7 -19 -6 54 -48 84 -48 15 0 50 9 79 19 29 10 72
21 96 24 23 3 60 14 82 25 l39 19 -19 -36 c-24 -46 -90 -109 -162 -155 -64
-41 -71 -50 -31 -39 34 8 107 56 188 122 33 28 64 50 68 50 4 1 7 -86 7 -191
l-1 -193 -30 -43 c-40 -56 -33 -70 15 -30 32 26 37 28 27 10 -7 -13 -11 -44
-10 -70 1 -26 -2 -55 -6 -64 -4 -10 -3 -18 1 -18 7 0 5 -132 -2 -177 -1 -4
-32 -26 -69 -48 -84 -49 -107 -83 -217 -318 -44 -94 -90 -182 -101 -195 -21
-23 -252 -142 -275 -142 -7 0 -11 6 -10 12 2 9 -16 15 -55 18 -47 4 -60 2 -67
-10 -14 -26 3 -44 28 -31 11 6 24 11 29 11 4 -1 -5 -8 -20 -16 -45 -24 -24
-28 23 -4 59 30 60 19 2 -13 -27 -15 -52 -23 -56 -19 -4 4 -6 2 -4 -4 1 -6
-41 -48 -94 -93 -54 -45 -98 -84 -98 -86 0 -3 105 -5 234 -5 l233 0 23 62 c32
90 344 719 369 745 11 12 54 41 93 64 40 23 93 55 118 70 59 36 89 43 136 30
32 -9 44 -20 67 -62 30 -55 81 -179 103 -249 16 -53 15 -57 -44 -232 l-46
-137 -55 31 c-31 17 -63 38 -72 47 -10 10 -27 82 -49 206 -35 202 -56 269 -45
150 5 -62 46 -280 61 -328 6 -18 4 -18 -28 -1 -61 32 -13 -11 70 -62 42 -26
84 -53 92 -60 8 -6 60 -38 115 -69 55 -31 116 -69 135 -84 19 -15 59 -36 87
-45 29 -10 56 -22 59 -28 4 -6 -1 -8 -12 -4 -11 3 -55 12 -99 21 -44 9 -165
45 -270 80 -255 87 -370 116 -420 108 -52 -8 -221 -143 -179 -143 3 0 21 12
41 27 29 22 150 59 160 49 1 -1 -22 -40 -52 -86 -30 -47 -55 -88 -55 -92 0 -5
75 -8 168 -8 l167 1 28 43 c39 62 33 68 -14 16 -38 -42 -39 -42 -10 -5 17 22
41 53 54 68 l24 28 74 -26 c136 -49 263 -84 339 -95 41 -6 79 -15 84 -20 6 -6
17 -10 26 -10 11 1 9 6 -9 20 -30 25 -22 25 39 -1 26 -11 59 -19 72 -17 17 2
3 11 -52 32 -41 16 -84 35 -95 42 -11 6 -31 15 -45 19 -14 4 -38 17 -55 30
-41 30 -214 135 -224 135 -21 0 -30 24 -17 49 8 14 26 62 40 106 15 44 36 93
48 109 20 27 20 37 14 179 -7 162 -27 343 -51 482 -18 102 -11 203 11 180 16
-16 19 -29 4 -20 -5 3 -10 -1 -10 -10 0 -12 5 -15 16 -11 9 3 20 6 25 6 5 0 9
6 9 13 0 21 48 17 54 -6 4 -16 11 -19 38 -14 19 3 54 1 78 -3 27 -5 46 -5 48
1 2 5 8 6 14 3 6 -4 29 -8 52 -10 32 -2 37 0 21 7 -15 7 -12 8 15 4 18 -3 37
-10 40 -16 4 -6 15 -7 31 0 32 12 120 6 189 -13 48 -14 57 -14 70 -1 13 13 12
15 -5 15 -10 0 -16 3 -12 6 3 3 56 -6 116 -20 82 -20 129 -26 179 -23 46 3 92
-2 147 -15 44 -11 81 -21 83 -23 1 -1 -9 -26 -22 -55 -23 -50 -26 -77 -6 -65
5 3 20 30 34 60 14 30 30 55 36 55 10 0 3 -20 -31 -93 -10 -22 -10 -33 -1 -48
7 -10 12 -29 12 -41 0 -33 15 -11 35 52 43 132 82 190 125 190 61 0 654 414
755 527 11 13 24 23 29 23 4 0 -11 -21 -33 -46 -23 -26 -41 -51 -41 -55 0 -20
21 -6 56 39 61 76 65 71 9 -11 -7 -10 -11 -26 -8 -37 3 -10 0 -21 -6 -24 -14
-9 -14 -36 -1 -36 5 0 31 32 56 70 26 39 49 70 51 70 4 0 -87 -172 -99 -185
-4 -5 -8 -18 -8 -28 0 -45 29 1 142 223 41 81 45 95 26 84 -7 -4 -4 2 6 14 11
12 15 22 11 22 -4 0 -2 8 6 18 8 9 22 33 31 53 9 20 49 65 88 100 50 45 97
100 152 184 44 66 84 122 89 123 5 2 7 8 4 12 -3 5 5 16 17 24 12 9 19 16 15
16 -5 0 0 14 10 30 9 17 21 30 25 30 13 0 9 -17 -7 -30 -8 -7 -13 -16 -10 -20
2 -4 -10 -25 -29 -46 -18 -21 -57 -75 -86 -119 -29 -44 -67 -97 -83 -118 -32
-42 -33 -54 -2 -29 28 23 145 176 178 234 30 52 43 62 31 26 -3 -13 -3 -20 1
-16 4 4 9 19 10 33 3 26 63 110 73 101 3 -3 -1 -12 -8 -21 -7 -8 -8 -15 -2
-15 13 0 24 29 16 42 -5 8 61 118 71 118 2 0 6 -8 9 -17 4 -10 4 -14 0 -10 -8
8 -44 -21 -44 -36 0 -6 9 -2 21 9 12 10 24 17 28 15 3 -2 11 6 17 18 10 19 12
20 18 6 3 -9 6 -35 6 -58 0 -23 7 -80 15 -127 8 -47 24 -159 35 -249 35 -284
78 -489 144 -677 14 -40 30 -105 35 -145 l9 -74 -36 -32 c-21 -18 -64 -49 -97
-69 -33 -21 -78 -52 -101 -70 -22 -18 -87 -58 -144 -89 -182 -99 -575 -361
-655 -436 -39 -36 -178 -139 -188 -139 -9 0 -5 8 33 65 40 59 82 145 77 158
-2 7 -16 -13 -32 -43 -54 -108 -134 -216 -178 -240 -65 -36 -226 -148 -287
-199 -30 -26 -70 -57 -87 -70 -18 -12 -33 -28 -33 -35 0 -7 -35 -36 -77 -66
-42 -30 -72 -55 -66 -57 17 -6 57 22 163 116 113 99 248 192 442 303 79 44
154 89 168 98 14 10 81 45 148 80 152 77 280 149 288 162 3 5 -29 -10 -72 -33
-44 -24 -105 -56 -138 -72 -32 -15 -76 -40 -98 -53 -53 -34 -59 -24 -9 15 102
81 519 360 636 426 48 27 124 78 230 154 l50 36 -23 -30 c-13 -16 -66 -74
-119 -127 -54 -54 -92 -98 -86 -98 23 0 371 368 400 423 20 40 30 137 13 137
-7 0 -10 -7 -6 -15 3 -8 -9 0 -28 18 -32 33 -63 97 -46 97 13 0 110 -62 110
-71 0 -4 19 -31 42 -60 45 -57 138 -195 138 -204 0 -4 -4 -3 -10 0 -6 3 -7 -1
-3 -10 4 -12 8 -13 13 -5 5 8 22 -13 47 -56 87 -151 119 -210 127 -229 4 -11
1 -78 -6 -150 -11 -118 -19 -149 -81 -330 -132 -386 -177 -517 -177 -521 0 -2
320 -4 710 -4 l710 0 0 316 0 316 -42 16 c-62 23 -264 129 -328 171 l-55 36
-3 245 c-2 135 -7 249 -11 253 -4 4 -16 5 -25 1 -13 -5 -16 -12 -10 -28 12
-33 20 -308 10 -336 -5 -14 -12 -40 -15 -59 l-6 -34 -53 48 c-32 28 -51 53
-48 62 3 7 -3 22 -13 32 -11 11 -16 23 -13 27 4 4 1 4 -6 0 -11 -6 -8 -14 10
-34 38 -42 1 -17 -82 55 -31 26 -78 67 -105 90 -54 46 -123 77 -199 88 -26 4
-43 11 -37 15 11 6 13 28 26 213 l5 79 -38 -7 c-34 -5 -38 -4 -50 25 -9 19
-23 32 -40 36 -39 9 -109 33 -97 34 5 0 -1 7 -13 16 -13 9 -25 14 -26 13 -2
-2 0 -29 3 -59 6 -52 7 -55 32 -52 36 4 45 -11 62 -103 17 -93 19 -187 3 -197
-6 -4 -34 -8 -63 -8 l-52 0 -55 83 c-78 117 -88 146 -88 247 0 47 2 90 3 95 2
6 -2 24 -10 42 -13 33 -85 88 -101 78 -12 -8 -1 -35 14 -35 23 0 57 -77 60
-137 2 -32 7 -67 11 -78 5 -10 -8 0 -30 23 -39 44 -163 112 -203 112 -11 0
-24 5 -27 11 -6 9 -55 291 -55 314 0 5 10 -8 23 -29 12 -21 33 -46 46 -55 23
-15 23 -14 17 7 -7 21 -6 21 17 11 31 -14 118 0 125 20 3 9 -1 11 -16 7 -52
-17 -152 110 -166 212 -8 56 4 53 28 -6 25 -61 59 -107 107 -141 21 -16 35
-32 31 -36 -4 -5 1 -5 11 -2 10 4 16 3 13 -2 -3 -5 3 -19 14 -31 23 -26 26
-20 7 11 -10 17 -9 22 7 35 23 16 24 15 -39 40 -39 16 -58 32 -87 75 -32 46
-68 132 -68 161 0 20 19 5 44 -34 15 -24 49 -62 74 -86 26 -23 39 -39 29 -36
-17 6 -18 5 -6 -14 l14 -22 7 21 c5 11 11 19 15 17 5 -2 25 -12 46 -21 36 -17
49 -41 26 -49 -8 -3 -8 -11 2 -27 11 -19 11 -25 2 -28 -7 -3 -13 -14 -13 -26
-1 -24 -24 -60 -33 -51 -3 3 -8 -4 -12 -16 -4 -12 -5 -23 -3 -25 1 -1 27 -6
57 -10 53 -7 54 -7 46 16 -4 13 -9 47 -11 74 -10 144 -13 133 59 202 20 20 37
41 37 47 0 6 -5 5 -12 -2 -19 -19 -48 -15 -48 8 0 13 13 26 38 39 41 21 69 48
59 57 -3 4 -18 -3 -33 -15 -51 -40 -54 -33 -54 110 0 131 0 131 23 125 12 -3
25 -6 29 -6 3 0 9 -14 13 -30 8 -37 21 -39 29 -5 8 33 40 33 62 1 12 -19 17
-59 20 -162 2 -75 7 -140 9 -145 10 -16 15 -347 6 -372 -8 -20 -6 -29 10 -43
11 -10 25 -29 32 -43 9 -19 21 -27 45 -29 17 -2 32 -7 32 -13 0 -5 5 -9 11 -9
7 0 9 12 5 32 -20 108 -24 152 -16 172 18 47 33 228 34 398 1 98 -2 178 -6
178 -18 0 -38 -14 -38 -26 0 -15 -26 -19 -34 -5 -3 5 -7 39 -10 77 -3 55 -8
71 -26 86 -25 20 -40 23 -40 8 0 -5 4 -10 8 -10 11 0 12 -39 1 -45 -17 -11
-49 6 -49 25 0 10 7 25 15 33 19 19 6 31 -14 14 -22 -19 -51 -28 -51 -17 0 6
6 10 13 10 8 0 7 4 -3 10 -9 6 -10 10 -3 10 17 0 26 36 14 58 -6 11 -22 27
-36 36 -25 16 -28 16 -45 1 -17 -15 -19 -15 -29 2 -6 10 -11 13 -11 7 0 -7 9
-22 19 -35 17 -21 19 -22 18 -5 -1 10 4 21 12 24 8 2 11 1 8 -4 -3 -5 -2 -29
3 -52 l8 -43 -23 21 c-32 30 -90 150 -88 180 2 17 0 21 -6 11 -6 -9 -11 -10
-15 -2 -4 6 -4 16 -1 21 9 14 -4 52 -16 45 -5 -3 -6 1 -3 9 5 12 15 7 46 -22
56 -52 82 -64 135 -60 50 3 74 28 27 28 -59 0 -105 23 -155 78 -39 43 -47 57
-38 68 6 8 8 14 3 14 -5 0 -22 22 -37 50 l-28 49 60 58 c34 33 70 80 83 108
13 28 67 116 121 196 53 80 97 152 97 160 0 8 6 23 13 34 24 36 47 105 57 173
42 283 42 273 31 402 -6 69 -13 175 -15 235 -7 160 -29 211 -137 308 -59 54
-76 62 -124 57 -30 -2 -75 -23 -76 -35 0 -5 -4 -1 -9 10 -5 11 -8 70 -7 130
l1 110 6 -100 c3 -55 7 -90 8 -77 2 21 3 22 18 8 41 -41 52 -14 63 152 l7 97
38 -75 c21 -41 49 -90 63 -108 13 -18 21 -38 17 -45 -4 -6 -3 -9 1 -4 5 4 17
0 27 -10 37 -34 28 -2 -26 86 -63 104 -109 211 -110 258 -1 17 -4 29 -8 26 -5
-2 -9 8 -10 24 -4 64 -7 89 -13 113 -6 22 -5 22 10 -5 10 -16 25 -43 33 -60 8
-16 28 -49 44 -72 17 -25 26 -49 22 -60 -4 -13 -3 -14 4 -5 7 10 17 1 42 -37
17 -28 46 -63 63 -77 29 -25 31 -25 44 -8 12 16 11 21 -6 34 -26 21 -42 55
-35 77 4 13 3 14 -3 5 -13 -17 -21 -7 -71 93 -50 101 -94 223 -86 237 4 7 2 8
-4 4 -7 -4 -15 8 -21 31 -15 51 -13 62 4 39 9 -12 15 -15 15 -7 0 11 3 11 14
1 8 -6 12 -19 9 -28 -4 -13 -2 -12 11 3 16 19 16 19 10 -10 -4 -24 -3 -27 6
-15 9 13 10 12 8 -5 -1 -11 2 -27 7 -35 5 -8 8 -37 8 -65 0 -35 2 -44 8 -30 8
19 8 19 15 -2 3 -13 12 -23 19 -23 12 0 38 -36 110 -150 12 -19 34 -54 48 -77
15 -24 27 -49 27 -56 0 -7 5 -18 12 -25 9 -9 9 -12 0 -12 -17 0 -4 -49 19 -76
11 -11 19 -25 19 -32 0 -6 14 -22 31 -34 36 -27 89 -104 89 -129 0 -23 45
-108 70 -131 10 -9 21 -26 25 -38 3 -11 11 -20 16 -20 5 0 9 -9 9 -19 0 -10 7
-21 15 -25 9 -3 2 21 -23 72 -20 42 -39 79 -42 82 -12 12 -28 48 -34 77 -4 17
-18 43 -32 58 -29 32 -70 112 -79 158 -4 18 -20 46 -35 62 -16 17 -38 55 -50
85 -12 30 -35 79 -51 109 -16 30 -29 66 -30 80 0 14 -3 20 -6 13 -8 -20 -53
64 -53 98 0 15 -9 39 -21 54 -18 23 -19 31 -10 58 16 45 14 161 -5 248 -8 41
-13 82 -11 92 3 10 2 16 -2 14 -7 -5 -47 123 -43 138 2 5 -1 12 -5 15 -10 8
-43 102 -33 96 4 -3 13 -19 21 -37 7 -18 37 -69 66 -114 53 -81 70 -120 33
-75 -11 13 -20 19 -20 13 0 -15 30 -43 40 -37 4 3 38 -31 75 -75 66 -79 100
-108 113 -95 3 3 0 15 -7 27 -10 16 -10 22 -1 28 9 5 9 9 1 14 -6 4 -11 2 -11
-4 0 -27 -24 9 -75 112 -29 60 -51 117 -48 127 3 11 2 12 -4 4 -6 -8 -21 14
-46 69 -21 44 -35 83 -32 86 3 3 5 0 5 -8 0 -19 30 8 31 29 0 12 2 11 9 -4 l9
-20 0 20 c1 16 3 17 10 6 5 -8 16 -11 26 -8 27 11 8 25 -44 32 -32 4 -52 12
-56 23 -5 13 -8 13 -14 4 -10 -16 -58 96 -112 261 -21 67 -39 123 -39 125 0 3
7 -2 17 -9 15 -13 15 -12 4 9 -6 12 -16 22 -20 22 -5 0 -11 8 -13 18 -3 10 19
-6 48 -37 57 -59 63 -67 39 -57 -9 3 -15 0 -15 -10 0 -11 4 -12 19 -4 16 8 26
4 53 -17 39 -33 47 -43 44 -57 -2 -6 -1 -8 1 -3 9 14 25 7 19 -9 -3 -8 -2 -12
4 -9 17 10 34 -6 19 -17 -11 -7 -9 -8 5 -4 24 8 96 -36 160 -98 26 -26 50 -45
53 -42 3 3 -15 31 -39 63 -25 32 -51 70 -59 84 -8 15 -33 50 -57 79 -23 28
-39 57 -35 63 3 7 3 9 -2 5 -11 -11 -58 60 -49 74 4 7 3 8 -4 4 -13 -8 -36 30
-27 44 3 5 1 18 -5 27 -9 15 -10 14 -5 -7 6 -24 6 -25 -10 -5 -40 49 -217 345
-207 345 4 0 16 -12 26 -27 10 -17 15 -20 11 -8 -4 11 -7 35 -6 53 2 32 -5 39
-44 45 -30 4 -45 16 -45 36 0 10 -24 64 -54 122 -30 57 -59 121 -66 142 l-12
37 -2533 0 -2533 0 -31 -37z m188 -30 c-13 -16 -29 -32 -35 -38 -6 -5 -12 -14
-14 -20 -1 -5 -11 -21 -22 -35 -67 -89 -138 -192 -138 -201 0 -7 -10 -27 -21
-46 -17 -27 -24 -32 -31 -21 -6 9 -7 6 -3 -9 4 -13 -2 -37 -13 -59 l-19 -37
-7 26 c-6 26 -26 38 -26 17 0 -5 4 -10 9 -10 5 0 12 -11 15 -24 6 -25 -38
-126 -55 -126 -5 0 -9 -6 -9 -13 0 -7 -7 -22 -16 -33 -14 -18 -15 -18 -4 4 14
29 -9 59 -30 39 -10 -9 -12 -9 -8 4 4 10 -7 22 -38 38 -24 13 -44 28 -44 32 0
5 -7 9 -15 9 -8 0 -15 5 -15 11 0 6 -9 8 -22 4 -20 -5 -21 -4 -5 5 9 6 17 15
17 20 0 5 -8 7 -17 4 -24 -8 47 57 135 123 40 30 77 51 82 48 5 -3 8 0 5 7 -3
7 13 25 35 41 21 15 49 36 62 47 58 50 263 218 267 219 3 1 -6 -11 -20 -26z
m1193 -1118 c23 -55 50 -113 60 -130 28 -46 23 -62 -17 -67 -40 -5 -45 -1 -68
60 -13 36 -14 43 -2 38 19 -7 30 13 16 27 -9 9 -11 8 -5 -6 4 -13 2 -16 -9
-12 -21 9 -38 52 -31 83 4 20 3 23 -4 13 -8 -11 -13 -5 -21 25 -25 88 -5 95
34 11 14 -32 24 -44 24 -32 1 11 -8 37 -19 58 -11 20 -20 43 -20 49 0 21 16
-10 62 -117z m2893 -440 c74 -10 133 -43 161 -90 29 -49 27 -44 53 -130 19
-62 21 -88 18 -220 -4 -148 -5 -152 -51 -283 -72 -207 -96 -246 -201 -328 -67
-52 -143 -89 -258 -127 -61 -21 -113 -29 -250 -38 -154 -11 -185 -10 -276 5
-57 9 -124 27 -149 39 -51 23 -240 199 -262 244 -8 15 -24 42 -36 58 -64 88
-134 309 -134 423 0 68 2 76 42 136 29 44 60 75 100 101 68 44 192 94 239 96
19 1 72 12 119 25 182 51 432 85 633 89 87 1 161 5 164 9 4 3 14 4 22 2 9 -3
39 -8 66 -11z m-1660 -192 c41 -19 45 -33 11 -33 -40 0 -168 -29 -208 -46 -44
-20 -68 -8 -68 32 0 19 5 24 24 24 14 0 37 5 53 12 15 6 53 14 83 18 30 4 58
8 62 9 4 0 23 -7 43 -16z m2181 -90 c-3 -21 -12 -74 -21 -118 -9 -44 -25 -125
-36 -181 -11 -55 -27 -123 -35 -149 -8 -27 -12 -50 -10 -53 14 -13 57 137 80
283 9 55 19 115 22 133 3 17 10 32 16 32 11 0 10 -10 -16 -155 -9 -49 -19
-103 -21 -120 -6 -40 -22 -114 -31 -144 -5 -17 -4 -22 4 -17 7 4 12 12 12 17
0 5 9 22 20 37 11 15 28 69 39 119 10 51 23 99 29 106 7 7 10 23 7 35 -2 12 0
22 6 22 5 0 9 -12 9 -26 0 -14 4 -33 10 -43 6 -12 6 -30 -1 -52 -16 -57 -20
-97 -10 -103 5 -3 15 11 22 31 l12 38 12 -45 c7 -25 28 -85 47 -135 20 -49 41
-108 48 -130 7 -22 21 -59 31 -83 16 -36 18 -61 15 -160 -3 -77 -2 -100 3 -67
6 33 7 13 4 -60 -5 -107 -56 -462 -69 -474 -4 -3 -4 12 0 34 3 22 8 76 10 120
3 44 2 67 0 50 -47 -275 -68 -388 -89 -480 -14 -60 -25 -114 -25 -120 1 -22
43 85 65 165 13 47 24 79 24 72 1 -21 -40 -243 -50 -269 -21 -56 -3 -73 24
-20 l16 32 0 -30 c1 -38 -21 -167 -53 -318 -16 -74 -45 -162 -76 -236 -27 -64
-50 -123 -50 -131 0 -29 -195 -253 -405 -465 -222 -223 -322 -312 -443 -395
-21 -14 -62 -45 -92 -69 -92 -73 -158 -111 -299 -171 -75 -32 -194 -84 -266
-115 -189 -83 -198 -85 -373 -85 -142 0 -157 2 -235 29 -138 49 -238 89 -332
135 -408 199 -366 173 -680 424 -99 79 -156 122 -128 95 77 -71 149 -133 236
-203 42 -34 77 -64 77 -67 0 -3 -15 6 -32 21 -18 14 -60 47 -93 73 -33 26
-104 86 -159 133 -54 47 -111 95 -126 107 -42 34 -171 198 -227 288 -47 75
-82 148 -196 400 -48 106 -189 474 -256 665 -22 63 -49 141 -61 173 -11 32
-27 89 -34 125 -8 37 -33 153 -56 257 -23 105 -43 217 -46 250 -4 58 -17 162
-29 235 -4 22 3 11 18 -30 55 -146 134 -285 226 -397 46 -55 129 -112 190
-129 31 -9 75 -22 99 -30 47 -16 276 -34 332 -27 250 32 477 86 568 134 128
70 264 209 321 328 20 42 31 57 39 49 20 -20 29 2 36 86 8 116 31 219 61 279
16 30 20 45 11 38 -13 -11 -16 -9 -21 11 -8 32 49 148 72 148 14 0 14 -3 -5
-16 -12 -8 -22 -23 -21 -32 0 -12 3 -10 10 6 7 18 15 23 36 20 16 -2 27 -8 25
-15 -1 -7 1 -13 5 -13 5 0 29 -7 56 -15 26 -8 47 -10 47 -5 0 4 -14 11 -30 15
-38 8 -30 25 13 26 l32 2 -37 10 c-21 6 -38 15 -38 20 0 5 8 6 18 2 9 -4 25
-8 36 -9 10 0 26 -11 34 -24 l15 -24 -39 7 -39 6 30 -15 c17 -8 26 -15 20 -16
-13 -2 26 -18 45 -19 8 0 4 6 -10 14 l-25 14 26 1 27 0 -32 35 c-18 19 -39 35
-47 35 -18 0 -59 29 -42 30 6 0 14 -4 17 -9 3 -4 18 -11 34 -14 33 -7 83 -68
158 -192 135 -226 218 -342 309 -432 99 -99 133 -119 250 -146 207 -48 278
-47 545 7 213 43 362 91 402 128 7 7 31 26 53 43 135 100 236 243 285 403 17
57 34 102 37 99 4 -5 -20 -87 -45 -154 -2 -7 0 -13 6 -13 18 0 42 79 81 278
22 109 42 210 45 225 12 69 29 91 22 30z m-2771 -54 c57 -17 79 -31 116 -69
45 -47 59 -80 59 -141 0 -15 -5 -31 -11 -34 -6 -4 -8 -13 -5 -20 2 -7 -3 -29
-13 -48 -36 -70 -46 -129 -46 -262 0 -89 5 -139 14 -160 18 -39 16 -51 -22
-100 -88 -116 -212 -223 -301 -259 -161 -67 -486 -94 -651 -56 -179 42 -284
121 -362 274 -38 76 -77 180 -88 235 -2 9 -11 41 -21 71 -15 42 -19 85 -19
180 0 170 4 186 73 258 l57 61 149 31 c82 16 176 30 210 31 33 0 129 9 211 19
213 27 547 21 650 -11z m3401 -803 c93 -81 110 -120 129 -290 5 -41 3 -56 -4
-52 -6 4 -11 25 -11 47 0 58 -22 94 -70 113 -68 27 -100 21 -171 -32 -66 -48
-158 -168 -159 -205 0 -11 13 -31 30 -47 42 -39 153 -90 136 -62 -2 4 -1 14 5
22 7 12 9 12 9 -3 0 -26 29 -18 54 16 23 31 28 102 11 166 -14 57 13 27 56
-62 21 -44 43 -84 49 -87 6 -3 13 -64 17 -134 3 -70 10 -129 15 -132 4 -3 8
-14 8 -25 0 -10 4 -19 9 -19 16 0 19 37 9 107 -17 129 -21 233 -8 248 6 8 9
23 5 34 -3 10 -2 22 4 25 27 17 33 -352 7 -459 -9 -38 -21 -96 -27 -128 -15
-89 -71 -188 -127 -227 l-47 -32 53 52 c62 61 70 88 10 36 -24 -20 -82 -63
-130 -94 -48 -31 -87 -62 -87 -68 -1 -6 -15 -17 -31 -24 -36 -15 -35 -37 1
-31 29 4 139 67 203 116 55 42 69 45 34 8 -14 -16 -34 -41 -44 -58 -10 -16
-30 -44 -44 -60 -21 -25 -55 -87 -90 -165 -13 -28 -102 -88 -139 -92 -36 -5
-147 4 -155 12 -2 3 -1 34 4 70 17 149 34 227 54 260 11 19 19 44 17 55 -3 19
-2 19 16 3 26 -24 35 -23 67 11 16 16 34 27 42 24 8 -3 17 2 20 11 5 12 17 16
43 15 20 -1 50 5 66 13 42 23 101 87 119 129 8 19 22 41 30 48 17 14 11 36 -6
25 -6 -4 -8 -2 -5 3 4 6 11 42 17 80 17 124 -9 165 -125 199 -108 31 -173 42
-185 30 -13 -12 -6 23 17 88 19 56 16 65 -13 31 -26 -29 -26 -30 -21 -5 3 14
9 48 12 75 11 77 71 326 89 367 10 22 32 48 54 61 81 51 112 50 178 -7z
m-4834 -693 c9 -10 27 -49 42 -88 15 -38 32 -79 38 -90 54 -93 61 -110 42 -94
-10 9 -25 14 -31 12 -8 -3 -13 5 -13 21 0 27 -47 68 -123 107 -37 20 -39 20
-70 1 -31 -18 -45 -50 -19 -44 6 1 12 -5 12 -13 0 -8 -4 -15 -10 -15 -5 0 -10
5 -10 11 0 6 -8 9 -18 7 -18 -5 -18 -2 -6 50 14 60 58 116 100 126 13 4 24 11
24 16 0 16 26 11 42 -7z m4539 -150 c16 -68 4 -108 -52 -185 -24 -32 -44 -57
-45 -55 -1 1 6 42 17 92 10 49 21 121 24 160 9 95 14 107 31 70 7 -16 18 -54
25 -82z m-4369 -228 c9 -16 23 -55 33 -85 9 -30 23 -65 31 -77 7 -12 18 -40
23 -63 9 -42 9 -42 -10 -21 -25 27 -75 35 -163 27 -93 -8 -116 -30 -116 -115
0 -31 4 -61 8 -67 4 -5 14 -27 21 -49 34 -100 81 -183 117 -206 33 -20 40 -21
87 -10 l51 11 129 -72 c72 -40 134 -80 138 -88 4 -8 37 -70 73 -138 36 -68 66
-124 66 -126 0 -11 -95 -26 -147 -23 -57 3 -67 7 -110 46 -27 23 -79 67 -118
99 -91 74 -241 219 -267 257 -13 19 1 9 38 -26 32 -31 70 -59 84 -62 14 -3 56
-17 93 -31 73 -28 152 -35 145 -14 -3 7 -25 16 -49 19 -24 4 -71 15 -104 24
-68 19 -119 66 -251 230 -67 84 -74 97 -88 166 -24 124 -27 163 -16 215 11 51
60 124 84 124 7 0 42 -15 78 -33 56 -28 66 -31 65 -16 -1 10 -7 15 -17 12 -8
-2 -6 1 5 8 11 7 23 17 27 23 4 6 12 5 22 -3 13 -11 18 -10 32 3 21 21 8 55
-41 111 -19 21 -35 42 -35 47 0 13 66 -64 82 -97z m858 -2534 c-25 -64 -25
-64 1 -51 28 15 56 65 65 113 8 53 20 33 32 -57 l9 -68 -36 -15 c-64 -28 -194
-73 -207 -73 -7 0 -20 7 -29 17 -29 29 -12 94 39 145 48 49 99 120 124 176
l17 37 3 -86 c2 -68 -2 -97 -18 -138z"/>
<path d="M5080 5836 c-34 -38 -67 -40 -128 -11 -52 25 -112 33 -112 16 0 -6
-44 -7 -107 -4 -181 10 -438 -32 -669 -108 l-92 -30 -20 -57 c-12 -31 -23 -68
-26 -82 -3 -14 -12 -50 -20 -80 -9 -30 -15 -62 -15 -70 0 -8 9 16 19 53 10 38
20 71 23 74 3 2 15 -1 28 -7 13 -8 44 -10 78 -7 31 3 101 1 156 -4 68 -7 109
-7 125 0 22 9 20 10 -12 5 -31 -5 -38 -3 -38 10 0 10 9 16 24 16 13 0 31 3 40
6 11 4 16 0 16 -13 0 -10 9 -24 20 -31 16 -10 20 -10 20 2 0 16 42 46 64 46 7
0 16 -7 20 -15 8 -22 25 -18 19 4 -4 15 2 21 27 26 38 8 47 1 29 -22 -13 -16
-12 -17 4 -4 15 12 20 11 35 -3 23 -20 32 -20 32 -2 0 15 21 26 50 26 10 0 20
6 23 13 3 9 9 9 30 -2 23 -12 29 -11 59 7 54 35 78 46 84 39 11 -11 -15 -34
-62 -56 -47 -22 -59 -37 -21 -26 80 24 307 188 307 222 0 8 9 26 19 40 18 22
19 53 2 53 -4 0 -18 -11 -31 -24z m-899 -260 c5 -6 9 -14 9 -18 0 -10 -178 -9
-203 0 -16 7 -14 11 15 32 18 13 62 36 98 51 l65 26 3 -41 c2 -23 7 -45 13
-50z"/>
<path d="M3570 4605 l-23 -25 26 -51 c16 -29 27 -67 27 -89 0 -37 1 -39 33
-38 40 1 70 20 96 61 18 29 18 33 4 61 -24 46 -90 106 -116 106 -13 0 -34 -11
-47 -25z"/>
<path d="M3123 4555 c-43 -30 -68 -196 -33 -211 25 -11 120 -14 120 -4 0 5 7
7 15 4 18 -7 19 4 1 77 -13 56 -59 149 -74 149 -4 0 -17 -7 -29 -15z"/>
<path d="M3510 3830 c-1 -3 -3 -30 -5 -60 -2 -30 -9 -56 -15 -58 -8 -3 -7 -8
1 -18 7 -8 9 -17 6 -20 -3 -3 -13 9 -23 27 -11 23 -13 34 -5 37 6 2 8 9 4 15
-5 7 -8 21 -8 31 0 11 -6 21 -12 23 -10 4 -13 -12 -13 -55 0 -41 -5 -63 -15
-72 -19 -15 -18 -16 -34 40 -24 82 -30 89 -30 37 -1 -26 5 -63 13 -82 14 -32
12 -45 -5 -45 -4 0 -5 10 -2 23 3 16 2 18 -5 9 -7 -11 -10 -10 -16 3 -9 24 -8
27 7 19 6 -4 8 -3 4 1 -8 10 -37 16 -37 8 0 -2 5 -14 11 -25 8 -15 8 -19 0
-14 -6 4 -20 25 -31 46 -24 48 -38 58 -36 26 0 -13 4 -22 7 -20 17 10 18 -30
2 -42 -22 -17 -37 -18 -27 -2 5 7 3 8 -5 3 -8 -4 -25 1 -42 14 -15 11 -30 21
-32 21 -6 0 -1 -39 6 -46 15 -15 6 -26 -10 -13 -15 12 -16 12 -8 -1 5 -8 10
-20 11 -27 3 -15 -24 -38 -33 -29 -4 4 -1 11 7 16 10 7 11 10 3 10 -21 0 -27
-4 -28 -22 -1 -9 2 -15 7 -12 4 3 8 1 8 -5 0 -17 -46 -42 -66 -35 -13 4 -15 3
-7 -3 16 -11 -69 -99 -86 -89 -6 4 -9 2 -6 -6 3 -8 -10 -29 -30 -48 -31 -30
-46 -60 -29 -60 7 0 66 41 74 51 13 16 58 33 84 30 19 -2 26 1 21 9 -5 8 2 11
24 8 18 -1 35 2 39 8 4 6 36 16 72 23 36 7 76 18 90 24 30 13 35 14 78 16 22
1 32 6 32 17 0 21 -61 15 -207 -19 -57 -13 -103 -20 -103 -16 0 18 78 80 111
89 21 6 86 17 145 25 60 8 152 21 204 31 108 19 216 14 295 -12 85 -29 100
-51 33 -49 -73 2 -299 -14 -338 -25 -21 -6 -41 -17 -44 -25 -6 -17 -6 -17 52
-6 34 7 42 6 42 -6 0 -11 5 -13 18 -8 25 11 410 13 457 3 22 -4 57 -16 78 -25
34 -15 39 -15 53 -1 13 13 9 19 -38 51 -29 20 -66 39 -83 43 -35 8 -78 28 -97
46 -7 7 -22 20 -32 28 -18 14 -19 13 -13 -2 5 -15 4 -16 -13 -6 -10 7 -17 16
-14 20 3 4 -1 5 -9 2 -9 -3 -16 3 -20 15 -3 14 -13 21 -30 21 -14 0 -29 5 -32
10 -3 6 -11 10 -16 10 -19 0 17 -28 42 -33 19 -3 18 -5 -8 -6 -18 0 -33 4 -33
9 0 6 -7 10 -16 10 -8 0 -12 5 -9 10 8 13 -8 13 -21 0 -6 -6 -15 -5 -24 1 -13
10 -13 10 0 6 8 -2 21 2 29 10 12 13 11 14 -10 7 -13 -5 -37 -8 -52 -8 -19 1
-24 -2 -15 -7 10 -7 9 -9 -5 -9 -10 0 -16 -3 -13 -8 2 -4 -20 -9 -50 -10 -30
-2 -54 1 -54 5 0 5 15 7 34 5 18 -2 36 0 39 5 5 8 -52 10 -78 3 -5 -1 -13 -2
-17 -1 -5 0 -8 -5 -8 -13 0 -8 -4 -17 -8 -20 -4 -2 -9 28 -11 67 -1 39 -7 78
-11 87 -5 8 -10 13 -10 10z"/>
<path d="M3730 3119 c-100 -26 -247 -50 -349 -58 -78 -6 -84 -7 -68 -22 9 -9
13 -20 9 -24 -4 -4 4 -4 18 0 20 6 23 5 13 -6 -23 -23 -14 -30 17 -14 16 8 42
20 57 25 24 8 25 8 9 -3 -41 -27 -90 -76 -83 -83 4 -4 17 2 30 14 13 12 27 22
33 22 5 0 -11 -18 -36 -40 -53 -46 -42 -54 13 -9 23 19 36 37 33 45 -9 23 52
54 104 54 63 0 201 35 212 53 4 9 23 19 40 22 36 8 68 26 68 37 0 12 -38 8
-120 -13z"/>
<path d="M2308 5489 c-87 -7 -258 -44 -258 -56 0 -2 21 -2 48 1 l47 6 -45 -15
c-25 -8 -54 -19 -65 -24 -11 -5 -67 -28 -125 -51 -58 -23 -111 -44 -117 -47
-7 -3 -13 -1 -13 4 0 11 80 52 161 83 30 11 61 25 69 30 13 8 13 10 -2 10 -18
0 -80 -23 -163 -61 -27 -13 -53 -22 -57 -21 -4 1 -11 -10 -14 -26 -4 -15 -22
-72 -40 -128 -39 -121 -60 -229 -68 -344 -6 -94 0 -76 29 90 28 162 46 230 62
230 8 0 27 -7 44 -15 33 -18 161 -15 167 3 2 6 18 8 38 5 19 -3 40 -1 48 6 12
10 13 9 9 -8 -8 -32 9 -25 36 14 16 23 31 35 47 35 13 0 24 5 24 10 0 6 4 10
9 10 4 0 8 -16 7 -36 -1 -22 4 -39 12 -41 8 -3 12 9 12 41 0 45 1 46 33 48 66
4 94 8 179 26 48 10 85 14 82 10 -3 -4 -23 -11 -44 -14 -43 -7 -69 -27 -50
-39 6 -4 16 -2 23 3 7 5 27 13 44 17 18 3 39 14 45 24 12 15 128 65 135 57 2
-2 -24 -15 -57 -30 -33 -15 -60 -32 -60 -37 0 -11 39 -2 54 12 14 13 28 11 20
-2 -8 -13 -8 -13 69 26 60 31 71 45 36 45 -18 0 -19 3 -9 15 6 8 8 20 4 26 -4
7 -3 10 2 8 64 -32 63 -32 79 -19 27 22 16 40 -39 64 -123 55 -260 71 -448 55z"/>
<path d="M6085 7522 c-4 -10 2 -22 14 -32 24 -18 62 -108 69 -165 2 -22 13
-51 24 -65 l20 -25 -41 -3 c-23 -2 -41 -7 -41 -11 0 -17 30 -33 57 -30 34 4
53 -7 53 -29 0 -10 9 -36 21 -57 11 -22 27 -65 35 -95 8 -30 18 -57 23 -60 12
-8 21 -50 10 -50 -11 0 0 -27 31 -75 15 -22 32 -56 40 -75 7 -19 21 -55 32
-80 14 -31 19 -57 15 -87 -4 -42 6 -67 16 -41 3 8 6 6 6 -4 1 -10 6 -18 11
-18 6 0 10 -9 10 -19 0 -11 5 -23 10 -26 6 -4 19 -23 29 -44 14 -27 17 -41 9
-55 -8 -15 -8 -17 2 -11 10 6 12 4 7 -8 -4 -10 -2 -17 4 -17 7 0 9 -10 5 -25
-4 -14 -2 -25 4 -25 5 0 10 -7 10 -15 0 -8 4 -15 9 -15 15 0 52 -91 50 -124
-1 -17 -1 -42 0 -56 1 -20 3 -22 11 -10 7 11 10 12 10 2 0 -7 14 -33 30 -58
17 -24 39 -76 50 -115 26 -99 40 -112 132 -112 99 0 369 22 441 35 46 9 57 14
57 30 0 19 -5 20 -110 13 l-110 -7 0 26 c0 24 -3 26 -48 26 -48 0 -48 0 -44
-29 4 -28 3 -29 -60 -35 -70 -8 -98 -2 -98 21 0 28 31 80 60 102 17 12 30 27
30 34 0 15 -67 82 -90 90 -12 4 -11 6 3 6 10 1 15 6 12 11 -4 6 -11 8 -16 5
-5 -4 -9 5 -9 18 0 14 -7 28 -16 31 -8 3 -13 10 -10 15 3 5 -3 7 -14 4 -15 -4
-20 0 -20 14 0 27 -9 34 -31 22 -16 -8 -19 -6 -19 16 0 14 -4 25 -8 25 -4 0
-16 25 -26 54 -11 30 -24 57 -31 60 -7 2 -25 45 -41 95 -16 50 -32 91 -36 91
-5 0 -8 8 -8 18 0 17 -33 108 -66 179 -8 17 -14 36 -14 42 0 7 -11 34 -25 61
-14 27 -25 55 -25 62 0 6 -9 30 -19 52 -11 23 -22 55 -24 71 -3 17 -9 41 -15
55 -6 14 -18 51 -27 82 -9 32 -21 60 -26 64 -5 3 -9 13 -9 22 0 10 -14 50 -31
91 -21 49 -29 82 -25 100 5 19 4 22 -3 11 -12 -18 -17 -13 -28 30 l-9 35 -91
2 c-77 2 -92 0 -98 -15z m185 -163 c0 -8 14 -41 31 -72 17 -31 28 -61 24 -67
-3 -5 1 -20 9 -32 8 -13 19 -42 25 -65 7 -23 18 -49 27 -57 8 -8 20 -41 26
-72 6 -32 20 -66 30 -76 10 -10 18 -29 18 -42 0 -14 6 -31 13 -38 6 -7 12 -17
12 -23 0 -5 15 -45 33 -89 22 -51 31 -87 28 -102 -4 -13 -2 -24 2 -24 14 0 64
-128 76 -193 4 -21 11 -35 17 -32 12 8 11 -1 -2 -28 -9 -18 -9 -20 2 -10 10
10 15 6 26 -25 14 -40 11 -62 -9 -61 -10 0 -10 2 0 6 18 7 15 33 -5 33 -13 0
-25 21 -45 78 -27 79 -86 226 -119 298 -10 23 -19 46 -19 51 0 6 -10 32 -21
59 -12 27 -29 67 -39 89 -9 22 -30 78 -45 125 -15 46 -34 94 -42 107 -9 13
-12 31 -8 45 5 19 4 20 -5 8 -9 -12 -10 -9 -6 15 4 19 3 25 -2 16 -7 -9 -11
-10 -17 -2 -4 7 -1 19 7 28 11 14 11 16 -3 11 -9 -3 -16 -1 -16 5 -1 7 -4 28
-8 47 -5 26 -4 31 4 20 6 -8 11 -10 11 -4 0 5 -10 21 -22 33 -16 18 -19 27
-11 41 7 10 8 22 2 31 -5 8 -9 19 -8 24 0 16 28 -38 29 -56z"/>
<path d="M7060 6689 c0 -20 28 -129 39 -154 9 -18 15 -44 25 -110 7 -44 19
-85 25 -85 3 0 5 -31 3 -70 -3 -50 0 -70 8 -70 9 0 10 -3 1 -14 -8 -9 -9 -37
-5 -86 7 -71 8 -73 42 -87 20 -8 50 -25 66 -37 17 -13 46 -30 64 -39 l33 -16
-2 60 c-1 32 -4 59 -6 59 -3 0 -11 -7 -20 -15 -18 -18 -33 -11 -33 15 0 10 -4
22 -10 25 -5 3 -10 16 -10 29 0 12 -4 26 -9 32 -15 15 -104 259 -146 399 -44
144 -49 159 -57 170 -5 5 -8 3 -8 -6z"/>
<path d="M7257 4505 c-15 -14 -27 -35 -27 -46 0 -41 27 -85 63 -102 59 -28 67
-24 67 34 0 49 -1 51 -24 47 -14 -3 -30 -2 -36 2 -18 11 1 41 31 47 31 6 39
27 13 37 -31 12 -60 6 -87 -19z"/>
<path d="M877 2444 c-4 -4 -7 -102 -6 -218 1 -208 1 -210 16 -154 8 32 19 56
23 53 9 -5 24 53 41 160 6 39 18 81 26 94 15 23 14 26 -7 43 -12 10 -30 18
-40 18 -10 0 -25 2 -32 5 -8 3 -17 2 -21 -1z"/>
<path d="M6717 2224 c-10 -10 5 -718 16 -731 5 -7 13 -13 17 -13 5 0 10 78 12
173 2 109 8 180 16 193 6 12 13 47 14 78 1 30 4 53 7 51 2 -3 10 0 17 6 8 7
14 7 19 -1 4 -7 9 -120 10 -253 3 -229 4 -241 23 -256 12 -9 25 -27 31 -41 6
-17 9 43 10 190 1 118 6 263 12 322 11 102 6 218 -9 218 -4 0 -18 -25 -32 -55
-14 -30 -28 -55 -31 -55 -15 0 -29 30 -24 52 7 31 -4 46 -39 50 -24 2 -31 9
-38 35 -8 33 -21 47 -31 37z"/>
<path d="M5045 650 c-68 -24 -213 -84 -250 -103 -16 -8 -75 -36 -130 -62 -86
-41 -147 -80 -255 -163 -14 -11 -95 -66 -180 -122 -202 -135 -282 -191 -276
-197 2 -3 42 20 88 50 303 197 377 244 413 259 79 32 110 43 120 41 6 -2 42
27 80 63 45 42 95 78 140 99 62 29 78 33 145 30 82 -2 149 -27 308 -112 61
-34 90 -56 113 -89 l30 -43 -27 -43 c-33 -52 -132 -183 -168 -221 -14 -15 -26
-30 -26 -33 0 -2 13 -4 30 -4 17 0 60 18 103 45 95 57 125 59 172 7 19 -20 35
-40 35 -44 0 -5 23 -8 50 -8 28 0 50 2 50 5 0 19 -151 314 -215 420 -88 147
-111 176 -174 216 -53 34 -101 37 -176 9z"/>
</g>
</svg>
